<mxfile host="app.diagrams.net" modified="2023-11-03T06:37:37.665Z" agent="Mozilla/5.0 (Windows NT 10.0; Win64; x64) AppleWebKit/537.36 (KHTML, like Gecko) Chrome/119.0.0.0 Safari/537.36" etag="_EOSc0mx4SqpLyqofWhj" version="22.0.8" type="github">
  <diagram name="페이지-1" id="peBdSjbYWjGwkeM5FC9v">
    <mxGraphModel dx="2261" dy="1951" grid="1" gridSize="10" guides="1" tooltips="1" connect="1" arrows="1" fold="1" page="1" pageScale="1" pageWidth="827" pageHeight="1169" math="0" shadow="0">
      <root>
        <mxCell id="0" />
        <mxCell id="1" parent="0" />
        <mxCell id="a9alraJZFlsGmdT-zWyM-28" value="" style="group" parent="1" vertex="1" connectable="0">
          <mxGeometry x="-772" y="-770" width="730" height="290" as="geometry" />
        </mxCell>
        <mxCell id="a9alraJZFlsGmdT-zWyM-14" value="" style="group;rounded=1;" parent="a9alraJZFlsGmdT-zWyM-28" vertex="1" connectable="0">
          <mxGeometry x="160" width="201" height="244" as="geometry" />
        </mxCell>
        <mxCell id="a9alraJZFlsGmdT-zWyM-17" value="" style="swimlane;whiteSpace=wrap;html=1;dashed=1;startSize=40;swimlaneLine=1;rounded=1;" parent="a9alraJZFlsGmdT-zWyM-14" vertex="1">
          <mxGeometry width="201" height="244" as="geometry" />
        </mxCell>
        <mxCell id="a9alraJZFlsGmdT-zWyM-18" value="exec" style="rounded=1;whiteSpace=wrap;html=1;swimlaneLine=1;fontStyle=1" parent="a9alraJZFlsGmdT-zWyM-17" vertex="1">
          <mxGeometry x="48" y="4" width="110" height="34" as="geometry" />
        </mxCell>
        <mxCell id="a9alraJZFlsGmdT-zWyM-19" value="untilll_cross" style="whiteSpace=wrap;html=1;rounded=1;" parent="a9alraJZFlsGmdT-zWyM-17" vertex="1">
          <mxGeometry x="-160" y="5.5" width="100" height="40" as="geometry" />
        </mxCell>
        <mxCell id="a9alraJZFlsGmdT-zWyM-20" value="__straight" style="whiteSpace=wrap;html=1;rounded=1;" parent="a9alraJZFlsGmdT-zWyM-17" vertex="1">
          <mxGeometry x="20" y="70" width="150" height="44.5" as="geometry" />
        </mxCell>
        <mxCell id="a9alraJZFlsGmdT-zWyM-21" value="" style="edgeStyle=elbowEdgeStyle;elbow=vertical;html=1;rounded=1;curved=0;sourcePerimeterSpacing=0;targetPerimeterSpacing=0;startSize=6;endSize=6;" parent="a9alraJZFlsGmdT-zWyM-17" source="a9alraJZFlsGmdT-zWyM-20" target="a9alraJZFlsGmdT-zWyM-19" edge="1">
          <mxGeometry relative="1" as="geometry" />
        </mxCell>
        <mxCell id="a9alraJZFlsGmdT-zWyM-16" value="__right" style="rounded=1;whiteSpace=wrap;html=1;" parent="a9alraJZFlsGmdT-zWyM-17" vertex="1">
          <mxGeometry x="20" y="130" width="150" height="50" as="geometry" />
        </mxCell>
        <mxCell id="a9alraJZFlsGmdT-zWyM-15" value="__left" style="rounded=1;whiteSpace=wrap;html=1;" parent="a9alraJZFlsGmdT-zWyM-17" vertex="1">
          <mxGeometry x="20" y="190" width="150" height="50" as="geometry" />
        </mxCell>
        <mxCell id="a9alraJZFlsGmdT-zWyM-26" value="after_cross" style="whiteSpace=wrap;html=1;rounded=1;" parent="a9alraJZFlsGmdT-zWyM-28" vertex="1">
          <mxGeometry y="68" width="100" height="40" as="geometry" />
        </mxCell>
        <mxCell id="a9alraJZFlsGmdT-zWyM-27" value="" style="edgeStyle=elbowEdgeStyle;elbow=vertical;html=1;rounded=1;curved=0;sourcePerimeterSpacing=0;targetPerimeterSpacing=0;startSize=6;endSize=6;entryX=1;entryY=0.5;entryDx=0;entryDy=0;" parent="a9alraJZFlsGmdT-zWyM-28" target="a9alraJZFlsGmdT-zWyM-26" edge="1">
          <mxGeometry relative="1" as="geometry">
            <mxPoint x="170" y="58" as="sourcePoint" />
            <mxPoint x="110" y="88" as="targetPoint" />
            <Array as="points">
              <mxPoint x="140" y="88" />
            </Array>
          </mxGeometry>
        </mxCell>
        <mxCell id="a9alraJZFlsGmdT-zWyM-54" value="Iterative process" style="swimlane;whiteSpace=wrap;html=1;" parent="a9alraJZFlsGmdT-zWyM-28" vertex="1">
          <mxGeometry x="-10" y="-202" width="690" height="480" as="geometry" />
        </mxCell>
        <mxCell id="a9alraJZFlsGmdT-zWyM-2" value="instructions" style="swimlane;fontStyle=0;childLayout=stackLayout;horizontal=1;startSize=30;horizontalStack=0;resizeParent=1;resizeParentMax=0;resizeLast=0;collapsible=1;marginBottom=0;whiteSpace=wrap;html=1;" parent="a9alraJZFlsGmdT-zWyM-54" vertex="1">
          <mxGeometry x="210" y="42" width="140" height="120" as="geometry" />
        </mxCell>
        <mxCell id="a9alraJZFlsGmdT-zWyM-3" value="(&#39;go&#39;, 2)" style="text;strokeColor=none;fillColor=none;align=left;verticalAlign=middle;spacingLeft=4;spacingRight=4;overflow=hidden;points=[[0,0.5],[1,0.5]];portConstraint=eastwest;rotatable=0;whiteSpace=wrap;html=1;" parent="a9alraJZFlsGmdT-zWyM-2" vertex="1">
          <mxGeometry y="30" width="140" height="30" as="geometry" />
        </mxCell>
        <mxCell id="a9alraJZFlsGmdT-zWyM-4" value="(&#39;turn left&#39;, 1)" style="text;strokeColor=none;fillColor=none;align=left;verticalAlign=middle;spacingLeft=4;spacingRight=4;overflow=hidden;points=[[0,0.5],[1,0.5]];portConstraint=eastwest;rotatable=0;whiteSpace=wrap;html=1;" parent="a9alraJZFlsGmdT-zWyM-2" vertex="1">
          <mxGeometry y="60" width="140" height="30" as="geometry" />
        </mxCell>
        <mxCell id="a9alraJZFlsGmdT-zWyM-5" value="(&#39;go&#39;, 1)" style="text;strokeColor=none;fillColor=none;align=left;verticalAlign=middle;spacingLeft=4;spacingRight=4;overflow=hidden;points=[[0,0.5],[1,0.5]];portConstraint=eastwest;rotatable=0;whiteSpace=wrap;html=1;" parent="a9alraJZFlsGmdT-zWyM-2" vertex="1">
          <mxGeometry y="90" width="140" height="30" as="geometry" />
        </mxCell>
        <mxCell id="a9alraJZFlsGmdT-zWyM-6" style="edgeStyle=orthogonalEdgeStyle;rounded=0;orthogonalLoop=1;jettySize=auto;html=1;entryX=0.5;entryY=0;entryDx=0;entryDy=0;curved=1;" parent="1" source="a9alraJZFlsGmdT-zWyM-2" target="a9alraJZFlsGmdT-zWyM-7" edge="1">
          <mxGeometry relative="1" as="geometry">
            <mxPoint x="-400" y="-770" as="targetPoint" />
          </mxGeometry>
        </mxCell>
        <mxCell id="a9alraJZFlsGmdT-zWyM-34" style="edgeStyle=orthogonalEdgeStyle;rounded=0;orthogonalLoop=1;jettySize=auto;html=1;endArrow=open;endFill=0;" parent="1" source="a9alraJZFlsGmdT-zWyM-7" target="a9alraJZFlsGmdT-zWyM-12" edge="1">
          <mxGeometry relative="1" as="geometry" />
        </mxCell>
        <mxCell id="a9alraJZFlsGmdT-zWyM-44" value="instruction" style="edgeLabel;html=1;align=center;verticalAlign=middle;resizable=0;points=[];" parent="a9alraJZFlsGmdT-zWyM-34" vertex="1" connectable="0">
          <mxGeometry x="-0.3001" y="-1" relative="1" as="geometry">
            <mxPoint x="2" y="-5" as="offset" />
          </mxGeometry>
        </mxCell>
        <mxCell id="a9alraJZFlsGmdT-zWyM-7" value="car.exec" style="shape=parallelogram;perimeter=parallelogramPerimeter;whiteSpace=wrap;html=1;fixedSize=1;" parent="1" vertex="1">
          <mxGeometry x="-268" y="-840" width="121" height="60" as="geometry" />
        </mxCell>
        <mxCell id="a9alraJZFlsGmdT-zWyM-30" style="edgeStyle=isometricEdgeStyle;rounded=0;orthogonalLoop=1;jettySize=auto;html=1;shape=link;elbow=vertical;exitX=0;exitY=0.25;exitDx=0;exitDy=0;entryX=1;entryY=0.5;entryDx=0;entryDy=0;" parent="1" source="a9alraJZFlsGmdT-zWyM-7" target="a9alraJZFlsGmdT-zWyM-18" edge="1">
          <mxGeometry relative="1" as="geometry" />
        </mxCell>
        <mxCell id="a9alraJZFlsGmdT-zWyM-9" value="PathDecide.getInstructions" style="shape=parallelogram;perimeter=parallelogramPerimeter;whiteSpace=wrap;html=1;fixedSize=1;" parent="1" vertex="1">
          <mxGeometry x="-430" y="-1090" width="170" height="60" as="geometry" />
        </mxCell>
        <mxCell id="a9alraJZFlsGmdT-zWyM-10" style="edgeStyle=orthogonalEdgeStyle;rounded=0;orthogonalLoop=1;jettySize=auto;html=1;curved=1;entryX=0.5;entryY=0;entryDx=0;entryDy=0;dashed=1;" parent="1" source="a9alraJZFlsGmdT-zWyM-9" target="a9alraJZFlsGmdT-zWyM-2" edge="1">
          <mxGeometry relative="1" as="geometry">
            <mxPoint x="-400" y="-940" as="targetPoint" />
          </mxGeometry>
        </mxCell>
        <mxCell id="a9alraJZFlsGmdT-zWyM-35" style="edgeStyle=orthogonalEdgeStyle;rounded=0;orthogonalLoop=1;jettySize=auto;html=1;entryX=1;entryY=0.5;entryDx=0;entryDy=0;curved=1;" parent="1" source="a9alraJZFlsGmdT-zWyM-12" target="a9alraJZFlsGmdT-zWyM-16" edge="1">
          <mxGeometry relative="1" as="geometry" />
        </mxCell>
        <mxCell id="a9alraJZFlsGmdT-zWyM-36" value="True" style="edgeLabel;html=1;align=center;verticalAlign=middle;resizable=0;points=[];" parent="a9alraJZFlsGmdT-zWyM-35" vertex="1" connectable="0">
          <mxGeometry x="0.0005" relative="1" as="geometry">
            <mxPoint x="18" y="-38" as="offset" />
          </mxGeometry>
        </mxCell>
        <mxCell id="a9alraJZFlsGmdT-zWyM-40" value="" style="edgeStyle=orthogonalEdgeStyle;rounded=0;orthogonalLoop=1;jettySize=auto;html=1;endArrow=none;endFill=0;" parent="1" source="a9alraJZFlsGmdT-zWyM-12" target="a9alraJZFlsGmdT-zWyM-39" edge="1">
          <mxGeometry relative="1" as="geometry" />
        </mxCell>
        <mxCell id="a9alraJZFlsGmdT-zWyM-45" value="False" style="edgeLabel;html=1;align=center;verticalAlign=middle;resizable=0;points=[];" parent="a9alraJZFlsGmdT-zWyM-40" vertex="1" connectable="0">
          <mxGeometry x="-0.6108" y="2" relative="1" as="geometry">
            <mxPoint x="-2" y="2" as="offset" />
          </mxGeometry>
        </mxCell>
        <mxCell id="a9alraJZFlsGmdT-zWyM-12" value="instruction == &#39;turn right&#39;" style="rhombus;whiteSpace=wrap;html=1;" parent="1" vertex="1">
          <mxGeometry x="-295" y="-750" width="175" height="60" as="geometry" />
        </mxCell>
        <mxCell id="a9alraJZFlsGmdT-zWyM-41" style="edgeStyle=orthogonalEdgeStyle;rounded=0;orthogonalLoop=1;jettySize=auto;html=1;curved=1;entryX=1;entryY=0.5;entryDx=0;entryDy=0;" parent="1" source="a9alraJZFlsGmdT-zWyM-39" target="a9alraJZFlsGmdT-zWyM-15" edge="1">
          <mxGeometry relative="1" as="geometry" />
        </mxCell>
        <mxCell id="a9alraJZFlsGmdT-zWyM-49" value="True" style="edgeLabel;html=1;align=center;verticalAlign=middle;resizable=0;points=[];" parent="a9alraJZFlsGmdT-zWyM-41" vertex="1" connectable="0">
          <mxGeometry x="0.0264" y="-1" relative="1" as="geometry">
            <mxPoint x="21" y="-34" as="offset" />
          </mxGeometry>
        </mxCell>
        <mxCell id="a9alraJZFlsGmdT-zWyM-43" value="" style="edgeStyle=orthogonalEdgeStyle;rounded=0;orthogonalLoop=1;jettySize=auto;html=1;endArrow=none;endFill=0;" parent="1" source="a9alraJZFlsGmdT-zWyM-39" target="a9alraJZFlsGmdT-zWyM-42" edge="1">
          <mxGeometry relative="1" as="geometry" />
        </mxCell>
        <mxCell id="a9alraJZFlsGmdT-zWyM-50" value="False" style="edgeLabel;html=1;align=center;verticalAlign=middle;resizable=0;points=[];" parent="a9alraJZFlsGmdT-zWyM-43" vertex="1" connectable="0">
          <mxGeometry x="0.3056" y="2" relative="1" as="geometry">
            <mxPoint as="offset" />
          </mxGeometry>
        </mxCell>
        <mxCell id="a9alraJZFlsGmdT-zWyM-39" value="instruction == &#39;turn left&#39;" style="rhombus;whiteSpace=wrap;html=1;" parent="1" vertex="1">
          <mxGeometry x="-294" y="-662" width="173" height="60" as="geometry" />
        </mxCell>
        <mxCell id="a9alraJZFlsGmdT-zWyM-47" style="edgeStyle=orthogonalEdgeStyle;rounded=0;orthogonalLoop=1;jettySize=auto;html=1;curved=1;entryX=1;entryY=0.5;entryDx=0;entryDy=0;" parent="1" source="a9alraJZFlsGmdT-zWyM-42" target="a9alraJZFlsGmdT-zWyM-20" edge="1">
          <mxGeometry relative="1" as="geometry">
            <mxPoint x="-360" y="-580" as="targetPoint" />
            <Array as="points">
              <mxPoint x="-390" y="-540" />
              <mxPoint x="-390" y="-678" />
            </Array>
          </mxGeometry>
        </mxCell>
        <mxCell id="a9alraJZFlsGmdT-zWyM-52" value="True" style="edgeLabel;html=1;align=center;verticalAlign=middle;resizable=0;points=[];" parent="a9alraJZFlsGmdT-zWyM-47" vertex="1" connectable="0">
          <mxGeometry x="-0.6514" y="-7" relative="1" as="geometry">
            <mxPoint as="offset" />
          </mxGeometry>
        </mxCell>
        <mxCell id="a9alraJZFlsGmdT-zWyM-42" value="instruction == &#39;go&#39;" style="rhombus;whiteSpace=wrap;html=1;" parent="1" vertex="1">
          <mxGeometry x="-295" y="-570" width="175" height="60" as="geometry" />
        </mxCell>
        <mxCell id="a9alraJZFlsGmdT-zWyM-59" value="" style="edgeStyle=orthogonalEdgeStyle;rounded=0;orthogonalLoop=1;jettySize=auto;html=1;curved=1;" parent="1" source="a9alraJZFlsGmdT-zWyM-55" target="a9alraJZFlsGmdT-zWyM-58" edge="1">
          <mxGeometry relative="1" as="geometry" />
        </mxCell>
        <mxCell id="a9alraJZFlsGmdT-zWyM-55" value="car.stop" style="shape=parallelogram;perimeter=parallelogramPerimeter;whiteSpace=wrap;html=1;fixedSize=1;" parent="1" vertex="1">
          <mxGeometry x="-612" y="-433" width="250" height="60" as="geometry" />
        </mxCell>
        <mxCell id="a9alraJZFlsGmdT-zWyM-56" style="edgeStyle=orthogonalEdgeStyle;rounded=0;orthogonalLoop=1;jettySize=auto;html=1;entryX=0.5;entryY=0;entryDx=0;entryDy=0;endArrow=classic;endFill=1;curved=1;" parent="1" source="a9alraJZFlsGmdT-zWyM-54" target="a9alraJZFlsGmdT-zWyM-55" edge="1">
          <mxGeometry relative="1" as="geometry" />
        </mxCell>
        <mxCell id="a9alraJZFlsGmdT-zWyM-58" value="STOP" style="ellipse;whiteSpace=wrap;html=1;" parent="1" vertex="1">
          <mxGeometry x="-473" y="-330" width="120" height="80" as="geometry" />
        </mxCell>
      </root>
    </mxGraphModel>
  </diagram>
</mxfile>
